<svg width="15" height="14" viewBox="0 0 15 14" fill="none" xmlns="http://www.w3.org/2000/svg">
<circle cx="7.63086" cy="6.92749" r="6.77869" fill="#DB3D88"/>
<path d="M4.18159 9.41823C3.91692 9.6829 3.91692 10.112 4.18159 10.3767C4.44627 10.6414 4.87539 10.6414 5.14006 10.3767L4.18159 9.41823ZM11.2786 3.95741C11.2786 3.5831 10.9752 3.27967 10.6009 3.27967L4.50121 3.27967C4.1269 3.27967 3.82347 3.5831 3.82347 3.95741C3.82347 4.33171 4.1269 4.63515 4.50121 4.63515H9.92314V10.0571C9.92314 10.4314 10.2266 10.7348 10.6009 10.7348C10.9752 10.7348 11.2786 10.4314 11.2786 10.0571L11.2786 3.95741ZM4.66083 9.89746L5.14006 10.3767L11.0801 4.43664L10.6009 3.95741L10.1216 3.47817L4.18159 9.41823L4.66083 9.89746Z" fill="white"/>
</svg>
